<svg xmlns="http://www.w3.org/2000/svg" xmlns:xlink="http://www.w3.org/1999/xlink" width="159" height="97" viewBox="0 0 159 97"><defs><filter id="a" x="6" y="4" width="146" height="95" filterUnits="userSpaceOnUse"><feOffset dy="3" input="SourceAlpha"/><feGaussianBlur stdDeviation="3" result="b"/><feFlood flood-opacity="0.161"/><feComposite operator="in" in2="b"/><feComposite in="SourceGraphic"/></filter><clipPath id="d"><rect width="159" height="97"/></clipPath></defs><g id="c" clip-path="url(#d)"><rect width="159" height="97" fill="#fff"/><g transform="translate(-53 -171)"><g transform="matrix(1, 0, 0, 1, 53, 171)" filter="url(#a)"><rect width="128" height="77" rx="5" transform="translate(15 10)" fill="#d4d8d2"/></g><rect width="78" height="4" transform="translate(93 190)" fill="#4e595a" opacity="0.1"/><rect width="92" height="5" transform="translate(86 184)" fill="#4e595a" opacity="0.1"/><rect width="60" height="4" transform="translate(102 195)" fill="#4e595a" opacity="0.1"/><rect width="19" height="4" transform="translate(77 210)" fill="#4e595a" opacity="0.1"/><rect width="19" height="4" transform="translate(77 218)" fill="#4e595a" opacity="0.1"/><rect width="19" height="4" transform="translate(77 226)" fill="#4e595a" opacity="0.1"/><rect width="76" height="4" transform="translate(99 210)" fill="#4e595a" opacity="0.1"/><rect width="76" height="4" transform="translate(99 218)" fill="#4e595a" opacity="0.1"/><rect width="76" height="4" transform="translate(99 226)" fill="#4e595a" opacity="0.1"/><path d="M478.25,280.5H521.5" transform="translate(-367.75 -27)" fill="none" stroke="#707070" stroke-width="1"/><g transform="translate(112 201)" fill="#dcdcdc" stroke="#869485" stroke-width="1" opacity="0.1"><ellipse cx="20.5" cy="20" rx="20.5" ry="20" stroke="none"/><ellipse cx="20.5" cy="20" rx="20" ry="19.5" fill="none"/></g><path d="M816,276.8c6.4-5.2,11.4-13,5.4-6s-5,7.2,3,6.8,13-10.2,7.6-5.4-2.6,6,3.8,5.4,18.8-.2,11.4-.8-1.8,11.4,0-1.8,2.8-4.2,2.8-4.2" transform="translate(-701 -28)" fill="none" stroke="#707070" stroke-width="1"/><path d="M887.333,213.5V280" transform="translate(-704 -27)" fill="none" stroke="#707070" stroke-width="0.5" opacity="0.12"/><path d="M887.333,213.5v12" transform="translate(-30.167 1140.333) rotate(-90)" fill="none" stroke="#707070" stroke-width="0.5" opacity="0.12"/><path d="M887.333,213.5v12" transform="translate(-30.167 1132.333) rotate(-90)" fill="none" stroke="#707070" stroke-width="0.5" opacity="0.12"/><path d="M887.333,213.5v12" transform="translate(-30.167 1124.333) rotate(-90)" fill="none" stroke="#707070" stroke-width="0.5" opacity="0.12"/><path d="M887.333,213.5v12" transform="translate(-30.167 1116.333) rotate(-90)" fill="none" stroke="#707070" stroke-width="0.5" opacity="0.12"/><path d="M887.333,213.5v12" transform="translate(-30.167 1107.333) rotate(-90)" fill="none" stroke="#707070" stroke-width="0.5" opacity="0.12"/><path d="M887.333,213.5v12" transform="translate(-30.167 1098.333) rotate(-90)" fill="none" stroke="#707070" stroke-width="0.5" opacity="0.12"/><path d="M887.333,213.5v12" transform="translate(-30.167 1089.333) rotate(-90)" fill="none" stroke="#707070" stroke-width="0.5" opacity="0.12"/><path d="M887.333,213.5v12" transform="translate(-30.167 1080.333) rotate(-90)" fill="none" stroke="#707070" stroke-width="0.5" opacity="0.12"/><path d="M887.333,213.5v12" transform="translate(-30.167 1072.333) rotate(-90)" fill="none" stroke="#707070" stroke-width="0.5" opacity="0.12"/></g></g></svg>