<svg xmlns="http://www.w3.org/2000/svg" xmlns:xlink="http://www.w3.org/1999/xlink" width="121" height="98" viewBox="0 0 121 98"><defs><linearGradient id="a" x1="0.5" y1="0.79" x2="0.5" y2="-0.21" gradientUnits="objectBoundingBox"><stop offset="0" stop-color="#fff"/><stop offset="1" stop-color="#b3b3b3"/></linearGradient><clipPath id="c"><rect width="121" height="98"/></clipPath></defs><g id="b" clip-path="url(#c)"><rect width="121" height="98" fill="#fff"/><g transform="translate(-2838.5 1634.428)"><path d="M2861.5-1336.59s2.57-4.151,6.128-5.931,5.931-1.581,7.314-2.767,2.175-.2,3.361-1.186a69.846,69.846,0,0,1,6.721-4.151c.791-.4,1.779-11.07,1.779-11.07l5.931-16.8,13.047,4.942,12.059,19.373s5.733,6.919,8.9,8.105a130.924,130.924,0,0,1,11.861,5.733,11.1,11.1,0,0,1,4.152,3.558Z" transform="translate(0 -200.026)" fill="url(#a)"/><path d="M2951.2-1526.3l2.57-2.768a4.009,4.009,0,0,1,2.175,1.186c2.005,2.8,6.388,8.9,9.687,8.9,4.349,0,6.326.2,12.454-7.71s12.652-10.478,12.652-10.478l4.942-7.512-13.443-29.258-17.792-3.558s-19.967,11.268-20.164,11.664-1.779,32.421-1.779,32.421Z" transform="translate(-64.987 -40.366)" fill="#f5f5f5"/><path d="M2875.5-1561.92a15.566,15.566,0,0,0,5.14,5.931c3.558,2.372,13.047,6.721,13.047,6.721l-.2-3.163s2.768-1.186,3.558-6.721a51.077,51.077,0,0,0,.593-9.094s-6.721-7.117-6.919-11.071,0-5.14-.593-6.524-.791-3.954-.2-4.151,1.779,1.384,1.977,2.57c0,0-.2-7.512,1.581-8.9a98,98,0,0,0,11.268-8.7c5.338-4.942,8.105-6.721,8.7-6.721s4.349,5.535,9.291,5.733c0,0,1.384.2.593,7.71s.593,8.3,1.977,7.117,2.57-.593,2.372-.2,0,.988.791.791,1.186,3.558.988,5.733-.791,4.151-4.547,4.744c0,0,.593,5.14-2.175,7.908s-4.151,4.349-4.547,9.489-.2,8.7,4.942,11.466,8.7,4.349,8.7,4.349l-.2-6.128a7.153,7.153,0,0,1,3.558-5.338c3.361-1.977,3.954-3.361,4.349-4.745s-.988-1.977-.2-2.768,1.582-.988.989-1.582-1.779-.988-.989-1.384,1.78-.988,1.582-2.372.988-3.756,2.174-5.14,2.57-3.163.791-6.128-3.558-6.721-3.558-10.28a41.981,41.981,0,0,0-3.954-15.815c-2.57-5.14-9.291-12.257-11.861-14.431s-5.535-2.174-8.1-2.174-3.756-.791-6.128-1.779-8.105-2.174-15.617,3.163-15.42,14.234-15.815,17a13.913,13.913,0,0,0,0,4.547,5.378,5.378,0,0,1-.988-2.175c-.2-1.186-1.186,2.57-.989,3.756a13.449,13.449,0,0,0,.791,2.57s-6.326,7.512-6.326,10.477,2.372,4.151,1.581,5.733-3.756,4.547-2.965,9.687,2.372,1.581,3.558,5.14A43.954,43.954,0,0,0,2875.5-1561.92Z" transform="translate(-6.682)" fill="#a9a9a9"/><path d="M2938.6-1218.952a130.955,130.955,0,0,0-11.861-5.733,13.166,13.166,0,0,1-3.58-2.51c-2.438,1.381-9.747,4.9-21.625,5.376a67,67,0,0,1-22.985-3.453c-.092.069-.174.133-.243.191-1.186.988-1.977,0-3.361,1.186s-3.756.988-7.314,2.768-6.128,5.931-6.128,5.931l81.25-.2A11.106,11.106,0,0,0,2938.6-1218.952Z" transform="translate(0 -321.42)" fill="#a9a9a9"/></g></g></svg>