<svg xmlns="http://www.w3.org/2000/svg" xmlns:xlink="http://www.w3.org/1999/xlink" width="187" height="93" viewBox="0 0 187 93"><defs><clipPath id="b"><rect width="187" height="93"/></clipPath></defs><g id="a" clip-path="url(#b)"><rect width="187" height="93" fill="#fff"/><path d="M2438.82-117.991a35.18,35.18,0,0,1,6.282-32.548,99.373,99.373,0,0,1,6.574-7.613c9.924-10.325,18.84-12.792,20.264,7.613,1.713,24.554-13.133,57.674-17.13,54.818s-1.714-23.433,17.13-32,15.417,9.157,26.267,6.873,27.98-27.409,47.966-4.568" transform="translate(-2424.583 181.39)" fill="none" stroke="#707070" stroke-miterlimit="10" stroke-width="3"/><g transform="translate(-5.219 -174.277)"><path d="M2670.512-302.68l-39.53,38.548a1.6,1.6,0,0,0-.482,1.143v5.579a.573.573,0,0,0,.636.57l5.708-.634a1.6,1.6,0,0,0,.942-.447l39.25-38.514a1.6,1.6,0,0,0-.035-2.312l-4.291-3.961A1.6,1.6,0,0,0,2670.512-302.68Z" transform="translate(-2497.238 485.134)" fill="#c1c1c1"/><line x2="6.392" y2="6.392" transform="translate(169.758 185.882)" fill="none" stroke="#fff" stroke-miterlimit="10" stroke-width="3"/></g></g></svg>